<svg xmlns="http://www.w3.org/2000/svg" viewBox="0 0 1024 1024" width="1024" height="1024">
  <defs>
    <linearGradient id="bg" x1="0" y1="0" x2="0.15" y2="1">
      <stop offset="0%" stop-color="#1e3a8a"/>
      <stop offset="100%" stop-color="#070e1c"/>
    </linearGradient>
    <!-- macOS squircle: corner radius ~22.5% of icon size -->
    <clipPath id="squircle">
      <rect width="1024" height="1024" rx="230" ry="230"/>
    </clipPath>
  </defs>

  <g clip-path="url(#squircle)">
    <!-- Background -->
    <rect width="1024" height="1024" fill="url(#bg)"/>

    <!-- Window body -->
    <rect x="138" y="196" width="748" height="534" rx="34" fill="#1c2333"/>

    <!-- Title bar (rounded top, squared bottom) -->
    <rect x="138" y="196" width="748" height="94" rx="34" fill="#2a3347"/>
    <rect x="138" y="256" width="748" height="34" fill="#2a3347"/>

    <!-- Traffic lights -->
    <circle cx="212" cy="243" r="22" fill="#ff5f57"/>
    <circle cx="280" cy="243" r="22" fill="#febc2e"/>
    <circle cx="348" cy="243" r="22" fill="#28c840"/>

    <!-- Faint content lines -->
    <rect x="172" y="322" width="400" height="16" rx="8" fill="#2a3347"/>
    <rect x="172" y="354" width="296" height="16" rx="8" fill="#232c3d"/>
    <rect x="172" y="386" width="352" height="16" rx="8" fill="#2a3347"/>

    <!-- Minimize arrow: shaft + head as one path, centred in window body -->
    <path d="M 476 372 L 548 372 L 548 492 L 664 492 L 512 656 L 360 492 L 476 492 Z"
          fill="white"/>
  </g>
</svg>
